<svg xmlns="http://www.w3.org/2000/svg" viewBox="0 0 85.04 85.04"><defs><style>.cls-1{fill:#23282e;}</style></defs><title>ghIcon</title><g id="圖層_2" data-name="圖層 2"><g id="Capa_1" data-name="Capa 1"><path class="cls-1" d="M79.34,21.71A42.88,42.88,0,0,0,63.86,5.85,40.81,40.81,0,0,0,42.52,0,40.81,40.81,0,0,0,21.18,5.85,42.88,42.88,0,0,0,5.7,21.71,43.46,43.46,0,0,0,0,43.58,43.08,43.08,0,0,0,8.11,69.21,41.72,41.72,0,0,0,29.07,85a2.43,2.43,0,0,0,2.21-.4A15.86,15.86,0,0,0,32.6,81a3.28,3.28,0,0,0,.1-.53l0-.25a3.21,3.21,0,0,0,0-.36h0v-.05c0-.17,0-.38,0-.66h0c0-.47,0-1.12,0-1.95q0-2.69,0-4.69l-1.18.21a14.73,14.73,0,0,1-2.85.18,21.24,21.24,0,0,1-3.57-.37,7.89,7.89,0,0,1-3.45-1.58,6.69,6.69,0,0,1-2.26-3.24l-.51-1.21a13.24,13.24,0,0,0-1.62-2.69,6.25,6.25,0,0,0-2.24-2l-.36-.26a3.81,3.81,0,0,1-.67-.63,2.9,2.9,0,0,1-.46-.74q-.15-.37.26-.61a3.26,3.26,0,0,1,1.49-.24l1,.16a7.43,7.43,0,0,1,2.55,1.27,8.15,8.15,0,0,1,1.31,1.13l0,.06a12.39,12.39,0,0,0,1.53,2.2,8.77,8.77,0,0,0,2.47,2.64,6,6,0,0,0,3.37,1.13,14.28,14.28,0,0,0,2.93-.26,10.06,10.06,0,0,0,2.31-.79,8.63,8.63,0,0,1,2.52-5.43A34.44,34.44,0,0,1,30,60.43a20.71,20.71,0,0,1-4.83-2.06,13.93,13.93,0,0,1-4.14-3.53,17.14,17.14,0,0,1-2.7-5.54,26.94,26.94,0,0,1-1.05-7.91,15.6,15.6,0,0,1,4.06-10.86q-1.9-4.8.36-10.76,1.49-.48,4.42.71a30.58,30.58,0,0,1,4.29,2q1.36.84,2.19,1.42a36.27,36.27,0,0,1,19.75,0l2-1.26a27.39,27.39,0,0,1,4.73-2.32q2.73-1.05,4.17-.58,2.31,6,.41,10.76A15.6,15.6,0,0,1,67.72,41.4a27.24,27.24,0,0,1-1.05,7.93,16.47,16.47,0,0,1-2.72,5.54,14.46,14.46,0,0,1-4.17,3.51,20.75,20.75,0,0,1-4.84,2.06,34.4,34.4,0,0,1-5.27,1q2.67,2.37,2.67,7.49V80s0,0,0,.08c0,.24.27,2.21.34,2.42a3.55,3.55,0,0,0,1.1,2.07A2.36,2.36,0,0,0,56,85a41.72,41.72,0,0,0,21-15.75A43.08,43.08,0,0,0,85,43.58,43.49,43.49,0,0,0,79.34,21.71Z"/></g></g></svg>